<svg width="24" height="24" viewBox="0 0 24 24" fill="none" xmlns="http://www.w3.org/2000/svg">
<path fill-rule="evenodd" clip-rule="evenodd" d="M19.84 18.1973C19.84 21.4933 15.32 21.8743 11.921 21.8743L11.6778 21.8741C9.5122 21.8688 4 21.7321 4 18.1773C4 14.9486 8.33835 14.5171 11.7115 14.5008L12.1642 14.5005C14.3296 14.5058 19.84 14.6425 19.84 18.1973ZM11.921 16.0003C7.66 16.0003 5.5 16.7323 5.5 18.1773C5.5 19.6353 7.66 20.3743 11.921 20.3743C16.181 20.3743 18.34 19.6423 18.34 18.1973C18.34 16.7393 16.181 16.0003 11.921 16.0003ZM11.921 2.00391C14.849 2.00391 17.23 4.38591 17.23 7.31391C17.23 10.2419 14.849 12.6229 11.921 12.6229H11.889C8.967 12.6139 6.6 10.2309 6.60997 7.31091C6.60997 4.38591 8.992 2.00391 11.921 2.00391ZM11.921 3.43191C9.78 3.43191 8.03798 5.17291 8.03798 7.31391C8.031 9.44791 9.76 11.1879 11.892 11.1959L11.921 11.9099V11.1959C14.061 11.1959 15.802 9.45391 15.802 7.31391C15.802 5.17291 14.061 3.43191 11.921 3.43191Z" fill="#2C2C2E"/>
</svg>
