<svg width="21" height="20" viewBox="0 0 21 20" fill="none" xmlns="http://www.w3.org/2000/svg">
<path d="M3 17.5H18M4.66667 17.5V4.16667C4.66667 3.72464 4.84226 3.30072 5.15482 2.98816C5.46738 2.67559 5.89131 2.5 6.33333 2.5H14.6667C15.1087 2.5 15.5326 2.67559 15.8452 2.98816C16.1577 3.30072 16.3333 3.72464 16.3333 4.16667V17.5M8 17.5V14.1667C8 13.7246 8.17559 13.3007 8.48816 12.9882C8.80072 12.6756 9.22464 12.5 9.66667 12.5H11.3333C11.7754 12.5 12.1993 12.6756 12.5118 12.9882C12.8244 13.3007 13 13.7246 13 14.1667V17.5M8.83333 7.5H12.1667M10.5 5.83333V9.16667" stroke="currentColor" strokeWidth="1.2" strokeLinecap="round" strokeLinejoin="round"/>
</svg>
