<svg width="17" height="12" viewBox="0 0 17 12" fill="none" xmlns="http://www.w3.org/2000/svg">
<path d="M4.33333 6H7.66667M11 4.33333L14.7942 2.43666C14.9212 2.37319 15.0623 2.34323 15.2042 2.34962C15.346 2.35601 15.4839 2.39854 15.6047 2.47317C15.7255 2.5478 15.8252 2.65206 15.8944 2.77606C15.9636 2.90005 15.9999 3.03967 16 3.18166V8.81833C15.9999 8.96032 15.9636 9.09994 15.8944 9.22394C15.8252 9.34793 15.7255 9.45219 15.6047 9.52683C15.4839 9.60146 15.346 9.64399 15.2042 9.65038C15.0623 9.65676 14.9212 9.6268 14.7942 9.56333L11 7.66666V4.33333ZM1 2.66667C1 2.22464 1.17559 1.80072 1.48816 1.48816C1.80072 1.17559 2.22464 1 2.66667 1H9.33333C9.77536 1 10.1993 1.17559 10.5118 1.48816C10.8244 1.80072 11 2.22464 11 2.66667V9.33333C11 9.77536 10.8244 10.1993 10.5118 10.5118C10.1993 10.8244 9.77536 11 9.33333 11H2.66667C2.22464 11 1.80072 10.8244 1.48816 10.5118C1.17559 10.1993 1 9.77536 1 9.33333V2.66667Z" stroke="currentColor" stroke-width="1.2" stroke-linecap="round" stroke-linejoin="round"/>
</svg>
